<?xml version="1.0" standalone="no"?>
<!DOCTYPE svg PUBLIC "-//W3C//DTD SVG 20010904//EN"
 "http://www.w3.org/TR/2001/REC-SVG-20010904/DTD/svg10.dtd">
<svg version="1.0" xmlns="http://www.w3.org/2000/svg"
 width="774.000000pt" height="774.000000pt" viewBox="0 0 774.000000 774.000000"
 preserveAspectRatio="xMidYMid meet">
<metadata>
Created by potrace 1.11, written by Peter Selinger 2001-2013
</metadata>
<g transform="translate(0.000000,774.000000) scale(0.100000,-0.100000)"
fill="#000000" stroke="none">
<path d="M3909 7729 c-19 -3 -61 -21 -94 -40 -107 -62 -136 -72 -220 -76 -91
-5 -103 -5 -129 0 -10 2 -41 -3 -70 -11 -28 -8 -71 -15 -96 -15 -39 -1 -45 2
-51 23 -6 21 -7 22 -9 5 -1 -14 -6 -9 -17 17 -11 28 -23 40 -47 46 -60 16
-172 1 -236 -32 -280 -143 -477 -240 -486 -238 -5 1 -20 -7 -33 -19 -17 -16
-25 -18 -36 -9 -10 9 -15 7 -19 -8 -6 -19 -77 -82 -93 -82 -4 -1 -24 -14 -43
-30 -19 -17 -39 -30 -45 -30 -5 0 -27 -16 -47 -35 -20 -19 -40 -35 -45 -35 -4
0 -23 -18 -41 -41 -31 -37 -37 -69 -12 -69 15 0 12 -16 -5 -34 -14 -13 -14
-16 3 -25 11 -6 22 -8 24 -5 3 3 8 -2 11 -10 4 -9 -1 -22 -9 -30 -8 -9 -14
-21 -13 -28 4 -32 -4 -45 -41 -68 -22 -14 -40 -28 -40 -31 0 -3 -11 -23 -25
-43 -14 -20 -28 -49 -31 -64 -14 -61 -46 -113 -83 -131 -20 -10 -40 -19 -44
-19 -5 -1 -23 -19 -40 -41 -18 -22 -44 -49 -59 -61 -35 -27 -27 -48 18 -48 33
0 70 -19 59 -30 -3 -3 -15 -7 -28 -9 -24 -4 -49 -23 -29 -23 7 0 10 -9 8 -22
-3 -13 -5 -26 -5 -30 -1 -5 -12 -8 -24 -8 -32 0 -38 -8 -25 -35 8 -17 6 -28
-7 -49 -9 -14 -21 -24 -25 -21 -4 3 -10 -4 -13 -15 -6 -23 -20 -26 -39 -6 -17
16 -48 3 -48 -19 0 -22 -17 -18 -36 8 l-16 22 6 -27 c5 -21 2 -28 -15 -33 -12
-4 -18 -12 -15 -21 7 -19 -14 -18 -42 2 -22 15 -76 15 -102 -1 -6 -4 -27 -7
-47 -7 -26 0 -44 8 -70 34 l-34 33 6 -32 c7 -40 0 -42 -19 -5 l-15 27 -9 -25
c-5 -14 -6 -37 -1 -52 7 -26 5 -32 -13 -29 -4 0 -5 -6 -2 -14 8 -20 -5 -19
-27 1 -10 9 -22 13 -27 10 -15 -9 -23 -118 -9 -135 10 -11 8 -13 -10 -7 -35
11 -108 -39 -108 -73 0 -8 -18 -24 -40 -37 -64 -36 -87 -77 -85 -157 0 -16 1
-31 1 -35 5 -32 -2 -42 -25 -36 -22 5 -25 2 -28 -28 -2 -28 -7 -33 -25 -30
-26 4 -29 -5 -9 -33 22 -32 8 -45 -177 -168 -10 -7 -28 -27 -39 -46 -17 -27
-19 -35 -7 -42 8 -5 16 -9 19 -9 8 0 9 -174 0 -185 -4 -5 -7 -36 -7 -67 0 -51
-3 -60 -32 -87 -28 -26 -33 -36 -30 -57 0 -4 -5 -10 -11 -14 -7 -4 -9 -13 -6
-19 4 -6 11 -9 16 -6 4 3 13 -2 20 -10 7 -8 19 -15 26 -15 14 0 21 -21 26 -74
3 -31 32 -45 45 -21 11 18 33 20 66 7 31 -13 34 -24 12 -42 -19 -16 -2 -40 29
-41 11 0 16 -3 10 -5 -7 -3 -9 -17 -5 -37 5 -26 12 -33 34 -35 35 -4 42 -22
24 -59 -8 -15 -20 -56 -27 -91 -10 -50 -18 -66 -38 -76 l-25 -13 25 -17 c30
-20 42 -52 22 -60 -11 -4 -11 -10 1 -33 23 -48 28 -98 11 -112 -8 -7 -13 -18
-10 -26 3 -7 -21 -38 -52 -68 -56 -54 -61 -66 -32 -70 7 -2 15 -7 17 -12 2 -6
15 -15 30 -22 14 -6 20 -12 14 -12 -7 -1 -13 -8 -13 -17 0 -10 5 -14 15 -10 9
3 18 -1 22 -9 4 -12 9 -13 19 -4 14 11 20 1 15 -25 -1 -5 6 -6 15 -2 12 4 15
2 10 -9 -7 -20 8 -19 28 1 15 14 16 12 16 -20 0 -38 8 -44 28 -24 7 7 12 8 12
2 0 -6 6 -18 13 -28 12 -16 14 -16 40 4 37 30 34 15 -13 -54 -50 -74 -39 -86
42 -45 l57 29 16 -30 c9 -16 13 -30 11 -30 -3 0 14 -37 37 -82 23 -46 43 -99
44 -118 2 -52 14 -100 24 -100 5 0 8 -3 8 -7 -4 -22 3 -24 21 -8 19 17 19 17
15 -5 -3 -17 -1 -20 12 -16 9 4 20 1 25 -6 6 -11 8 -11 8 0 0 9 5 10 19 2 11
-5 26 -7 34 -5 7 3 20 -1 27 -10 17 -21 27 -19 35 6 5 14 12 18 23 14 23 -9
51 -15 87 -17 39 -2 55 -15 55 -45 0 -18 4 -24 15 -19 10 3 6 -8 -11 -35 -14
-22 -23 -46 -20 -52 3 -9 5 -9 5 1 1 6 7 12 15 12 8 0 17 8 21 18 6 14 9 12
16 -13 7 -24 4 -34 -16 -55 -23 -24 -33 -50 -20 -50 3 0 21 7 41 15 19 8 35
14 37 14 1 0 15 4 30 10 56 22 70 6 47 -53 -7 -20 -6 -24 5 -19 8 3 15 8 15
12 0 3 10 12 21 19 19 12 24 11 50 -18 18 -19 29 -25 29 -17 0 8 7 17 15 21
10 4 17 -5 24 -27 l9 -32 1 34 c1 29 3 32 16 21 8 -7 15 -19 15 -26 0 -14 37
-13 61 2 8 4 7 0 -1 -16 -10 -19 -8 -25 16 -45 l28 -24 -25 -20 c-21 -17 -22
-20 -7 -26 21 -8 16 -13 -59 -69 -29 -21 -53 -41 -53 -45 0 -15 49 -61 65 -61
13 0 13 -2 3 -14 -7 -7 -18 -12 -24 -9 -7 2 -15 0 -18 -6 -7 -11 15 -20 87
-36 28 -5 35 -11 28 -18 -18 -18 -12 -37 12 -37 22 -1 22 -1 2 -18 -11 -9 -21
-28 -21 -42 0 -14 -4 -33 -9 -43 -6 -15 -4 -16 19 -7 32 12 32 9 1 -40 -23
-37 -34 -86 -17 -78 111 56 168 70 179 42 4 -11 27 -38 51 -61 40 -38 44 -46
39 -78 -4 -23 -1 -40 9 -49 8 -8 14 -24 14 -35 0 -12 5 -21 10 -21 16 0 11
-38 -7 -61 -26 -32 -47 -52 -71 -69 -27 -18 -28 -40 -3 -47 11 -3 22 -16 25
-29 5 -20 13 -24 45 -24 24 0 46 -7 57 -17 10 -10 19 -17 21 -15 12 9 23 -2
23 -25 0 -20 3 -24 9 -14 7 10 13 11 31 1 l23 -12 -34 -29 c-19 -16 -37 -29
-41 -29 -17 0 -7 -22 12 -27 25 -7 26 -21 3 -40 -16 -12 -15 -13 12 -9 17 2
49 11 73 19 43 15 55 8 26 -15 -51 -41 -66 -60 -55 -67 9 -6 8 -11 -3 -20 -20
-17 -4 -51 23 -51 10 0 24 -7 31 -15 7 -8 20 -15 29 -15 14 0 14 -2 1 -10 -18
-12 -17 -12 38 -15 24 -1 45 -5 48 -8 9 -8 -6 -67 -17 -67 -5 0 -9 -11 -9 -25
0 -20 -5 -25 -24 -25 -13 0 -29 -7 -36 -15 -7 -9 -17 -12 -24 -7 -6 4 -23 13
-38 20 -22 9 -30 8 -43 -4 -12 -12 -13 -20 -4 -37 12 -21 11 -21 -8 -5 -11 10
-25 18 -31 18 -7 0 -12 11 -12 25 0 24 -28 48 -51 43 -7 -2 -16 12 -21 30 -5
17 -12 32 -16 32 -4 0 -34 -15 -67 -33 -42 -22 -61 -39 -63 -54 -2 -14 -10
-23 -20 -23 -13 0 -14 -2 -4 -8 7 -5 22 -26 33 -48 12 -21 15 -33 8 -26 -26
25 -40 14 -33 -25 4 -21 11 -46 15 -55 6 -10 5 -19 -1 -23 -5 -3 -6 -13 -3
-21 4 -11 0 -15 -13 -14 -38 4 -54 0 -54 -16 0 -8 -4 -13 -9 -10 -4 3 -11 35
-13 71 -3 36 -12 72 -19 81 -11 14 -14 12 -28 -13 -8 -15 -14 -43 -12 -60 1
-19 -3 -33 -9 -33 -6 0 -8 -6 -4 -12 6 -10 5 -10 -7 -1 -9 8 -19 9 -25 4 -15
-15 -64 -1 -64 18 0 9 -5 22 -12 29 -14 14 -42 16 -33 3 3 -5 1 -12 -4 -15 -5
-3 -12 1 -15 10 -6 15 -8 15 -24 0 -10 -9 -30 -16 -45 -16 -14 0 -29 -5 -32
-10 -4 -6 -10 -8 -14 -5 -5 2 -17 -5 -27 -16 -11 -12 -37 -30 -59 -40 -69 -34
-99 -63 -91 -92 3 -14 12 -32 19 -39 24 -26 54 -74 61 -96 7 -20 1 -25 -51
-48 -32 -14 -79 -37 -104 -50 -64 -33 -199 -66 -215 -53 -7 6 -18 35 -24 65
-12 58 -48 98 -78 87 -9 -3 -82 -37 -162 -75 -191 -93 -221 -104 -236 -83 -6
8 -21 15 -32 15 -11 0 -24 4 -27 10 -10 16 -21 12 -35 -15 -11 -21 -15 -23
-22 -11 -10 17 -52 7 -54 -13 -1 -6 -2 -16 -3 -22 0 -6 -8 -8 -18 -5 -9 4 -20
1 -24 -6 -6 -9 -11 -9 -23 1 -14 12 -16 10 -16 -16 0 -16 6 -35 13 -42 9 -11
9 -13 0 -7 -16 9 -17 -6 -1 -22 13 -13 13 -13 -69 -74 -24 -17 -43 -36 -43
-41 0 -6 -3 -8 -6 -4 -4 3 -31 -13 -61 -35 -40 -30 -53 -47 -51 -62 5 -32 43
-31 154 5 54 18 101 33 104 34 3 1 20 5 37 9 27 6 39 3 62 -16 17 -13 30 -30
30 -39 1 -23 11 -29 30 -20 9 5 30 13 48 19 30 9 32 8 42 -19 6 -16 14 -28 18
-27 4 1 25 -7 45 -17 46 -23 54 -16 57 47 1 13 8 16 28 12 52 -9 63 -15 63
-37 1 -20 1 -21 11 -4 8 14 14 16 25 7 10 -9 22 -9 45 -1 38 13 47 8 64 -33
l14 -31 7 34 7 34 18 -24 c15 -20 19 -21 19 -6 0 12 8 17 30 17 17 0 33 7 39
18 9 14 11 12 17 -15 7 -34 18 -42 30 -21 5 8 10 6 15 -8 6 -18 7 -17 18 7 7
14 21 31 32 37 17 11 21 9 30 -15 l11 -28 11 23 c10 23 11 23 24 -10 11 -25
16 -29 23 -18 7 11 11 11 24 1 13 -11 16 -11 16 3 0 22 17 20 30 -5 9 -15 15
-18 25 -9 9 8 15 8 20 0 12 -19 35 -10 35 14 0 14 8 32 17 42 16 16 18 15 31
-17 13 -32 15 -33 23 -13 9 24 29 41 29 25 0 -6 6 -11 13 -11 7 0 18 -10 26
-22 l14 -22 8 21 c9 26 67 37 90 17 19 -17 39 -18 39 -1 1 7 5 6 13 -5 12 -15
16 -14 41 13 35 37 51 33 52 -12 0 -54 12 -65 39 -39 15 14 28 19 37 14 7 -5
27 -9 43 -10 17 -1 32 -3 35 -4 3 -1 12 -2 21 -1 9 1 19 -5 22 -14 10 -24 24
-18 37 18 10 24 14 28 17 14 3 -9 17 -24 33 -32 24 -13 30 -13 40 0 15 18 58
16 65 -3 7 -19 43 3 48 30 3 17 5 14 6 -9 0 -18 5 -33 10 -33 14 0 39 27 46
50 8 25 16 25 45 0 13 -11 25 -20 28 -20 8 0 32 33 42 58 5 12 13 22 17 22 5
-1 24 -21 43 -46 19 -25 52 -64 72 -87 l36 -41 7 37 c7 38 21 49 27 21 3 -14
7 -13 30 5 14 12 32 21 40 21 8 0 19 5 26 12 9 9 12 9 12 -1 0 -11 3 -11 17 0
17 14 20 14 40 -2 8 -7 15 -4 22 8 9 16 12 15 39 -15 20 -22 32 -29 37 -22 5
8 14 5 29 -9 26 -24 36 -19 36 18 0 25 1 25 21 -9 20 -32 22 -33 35 -15 8 10
14 23 14 28 0 4 5 5 10 2 6 -3 17 1 26 9 26 27 51 19 67 -22 9 -20 16 -29 16
-19 1 14 6 16 26 11 14 -3 25 -2 25 4 0 6 9 8 20 5 12 -3 22 1 26 10 7 19 34
11 34 -9 0 -18 15 -18 32 -1 21 21 56 27 69 10 9 -10 14 -11 19 -2 6 8 13 8
30 -1 16 -9 25 -9 33 -1 17 17 27 13 27 -9 0 -24 0 -24 36 -6 15 8 31 13 36
10 4 -3 8 -1 8 5 0 21 61 -11 72 -38 l10 -26 9 23 c5 13 15 22 21 20 7 -3 21
3 31 13 18 16 20 16 38 -2 11 -11 23 -18 28 -15 4 3 21 7 37 10 16 3 30 10 32
15 5 16 42 -11 42 -31 0 -9 4 -19 8 -22 11 -7 88 29 98 46 5 8 17 17 26 21 13
4 18 0 20 -20 4 -36 56 -40 69 -6 11 30 17 29 29 -3 9 -23 11 -24 26 -9 15 15
18 14 39 -5 17 -16 25 -18 30 -9 6 9 12 7 22 -6 13 -18 13 -18 27 0 14 19 15
19 33 2 24 -21 37 -22 53 -2 10 12 16 13 26 4 11 -9 20 -7 39 5 14 9 25 12 25
6 0 -7 17 -9 45 -5 44 5 45 4 46 -22 1 -19 6 -8 17 32 l16 60 11 -39 c13 -47
48 -66 75 -41 25 23 54 20 47 -5 -9 -33 10 -32 24 1 l12 31 16 -29 c19 -35 38
-36 56 -3 14 25 14 25 15 3 0 -24 20 -33 20 -10 0 7 7 4 15 -7 9 -12 15 -15
15 -7 0 10 6 10 24 -3 18 -12 26 -12 29 -3 3 6 6 -3 6 -22 1 -32 2 -33 34 -27
17 4 34 11 35 16 2 6 10 10 17 10 7 0 34 16 60 36 40 30 84 54 101 54 2 0 4
-5 4 -10 0 -18 40 -56 40 -39 1 9 7 7 19 -8 16 -19 21 -20 31 -8 6 7 17 12 25
9 7 -3 20 5 29 17 l16 23 6 -32 c8 -41 23 -50 41 -27 13 18 13 18 26 0 13 -17
15 -17 30 6 15 20 17 21 17 5 0 -15 3 -16 15 -6 12 10 15 10 15 0 0 -10 3 -10
15 0 13 11 23 9 56 -5 32 -15 46 -17 68 -8 26 9 30 8 46 -19 13 -23 19 -27 26
-17 5 8 9 21 9 30 0 9 7 22 15 29 11 10 18 9 30 -4 21 -21 35 -20 35 2 1 14 4
13 20 -7 11 -12 18 -27 15 -31 -3 -5 -1 -11 5 -15 5 -3 10 -2 10 2 0 5 14 17
30 26 32 19 35 17 42 -27 4 -25 28 -33 28 -9 0 10 11 36 24 57 l24 40 5 -30
c3 -16 9 -48 12 -72 6 -35 10 -41 21 -32 7 7 17 9 21 7 5 -3 17 1 28 9 12 9
14 14 5 14 -11 0 -12 2 -1 13 10 10 15 8 26 -7 8 -10 16 -24 18 -30 2 -6 24
-10 53 -8 27 1 72 1 99 0 99 -3 951 -1 1010 2 46 3 65 9 82 26 13 13 23 28 23
33 0 5 -25 31 -55 58 -32 28 -55 56 -55 68 0 38 -28 65 -63 61 -33 -3 -41 0
-184 87 -103 63 -176 99 -243 118 -25 7 -47 16 -50 20 -10 13 -90 49 -109 49
-11 0 -23 5 -26 11 -4 6 -13 8 -21 5 -8 -3 -14 1 -14 10 0 8 -12 19 -27 25
-62 25 -75 34 -95 68 -15 24 -18 36 -10 39 14 4 16 32 3 32 -5 0 -22 -5 -37
-10 -24 -9 -33 -7 -68 18 -23 16 -99 60 -171 97 -71 38 -142 77 -156 87 -15
10 -36 19 -47 21 -11 2 -36 17 -56 35 -20 18 -43 32 -51 32 -22 0 -76 63 -71
82 2 10 0 20 -5 24 -5 3 3 28 17 56 27 53 27 70 0 43 -15 -15 -16 -15 -16 0 0
9 7 30 16 47 l16 31 -29 -7 c-15 -3 -58 -22 -94 -40 -59 -30 -68 -32 -81 -19
-13 12 -20 12 -55 -7 -31 -16 -46 -18 -65 -11 -35 13 -90 82 -84 104 3 14 0
17 -12 13 -14 -5 -14 -3 2 8 10 8 15 20 11 26 -4 7 2 9 19 6 33 -6 33 -1 -4
32 l-30 28 20 37 c11 20 20 42 20 48 0 12 65 76 84 82 6 2 8 7 4 11 -3 4 -15
3 -26 -3 -16 -9 -21 -7 -25 10 -3 11 -15 23 -26 26 -12 3 -21 12 -21 20 0 9
-6 12 -19 8 -10 -3 -24 1 -31 10 -7 8 -20 15 -28 15 -13 0 -12 3 4 15 20 15
17 17 -33 19 -33 1 -41 18 -42 98 -1 68 8 96 43 128 35 34 34 60 -3 60 l-29 0
4 112 c3 107 5 113 30 133 16 13 24 27 20 33 -4 7 -1 12 8 12 19 0 76 76 76
100 0 9 18 29 41 46 22 16 46 34 52 39 7 6 29 18 50 27 20 10 37 22 37 27 0 5
10 13 23 17 12 3 56 30 97 59 87 61 163 105 182 105 7 0 43 20 80 45 37 25 72
45 77 45 5 0 11 3 13 8 2 4 27 18 57 32 30 14 59 30 65 35 6 6 31 20 56 33 25
12 52 27 60 32 14 10 53 25 75 30 6 1 21 10 35 20 14 10 59 35 100 57 41 21
95 53 119 71 24 18 50 32 58 32 7 0 13 5 13 10 0 6 5 10 10 10 14 0 113 70
123 87 5 7 12 11 17 8 7 -4 188 82 240 115 8 5 51 31 95 58 137 82 174 107
175 115 0 20 -29 34 -74 35 -58 3 -66 7 -66 35 0 13 -7 33 -16 45 -11 16 -14
34 -10 58 6 28 11 34 34 35 15 1 30 1 35 0 4 0 7 4 7 9 0 9 -29 15 -52 11 -13
-2 -9 37 5 41 6 3 25 4 40 4 23 -1 26 0 13 9 -10 7 -14 23 -11 42 3 27 0 33
-26 42 -38 13 -37 24 8 58 78 58 76 53 27 103 -34 34 -41 46 -28 48 13 3 15
12 11 38 -3 19 -2 32 2 29 5 -2 15 2 22 11 10 13 10 17 -1 24 -8 5 -18 6 -24
3 -5 -4 -6 -1 -1 7 4 7 2 16 -6 21 -10 6 -8 9 9 9 32 0 27 15 -10 34 -18 8
-29 16 -24 16 5 0 3 6 -3 14 -9 10 -8 15 4 20 8 3 15 14 15 24 0 10 11 24 25
30 14 6 25 15 26 19 0 5 3 17 6 28 2 11 6 30 7 42 1 13 10 31 18 40 18 21 26
43 32 99 6 47 -21 94 -54 94 -10 0 -21 3 -24 8 -7 11 21 45 33 38 5 -4 12 -2
16 4 4 6 -9 17 -27 24 -26 12 -29 16 -16 21 41 16 27 75 -17 70 l-25 -2 26 34
c14 18 22 33 17 32 -22 -4 -34 3 -43 25 -5 15 -16 23 -27 22 -26 -4 -81 41
-82 67 -1 49 -5 58 -30 64 -14 4 -32 6 -38 5 -20 -4 -15 19 9 45 17 18 19 26
10 32 -10 6 -8 14 8 33 25 33 25 41 0 33 -13 -4 -20 -2 -18 6 2 7 -12 13 -36
15 -22 2 -43 9 -48 16 -4 7 -8 9 -8 4 0 -6 -5 -5 -11 1 -8 8 -6 18 6 37 16 24
14 31 -9 27 -17 -3 -25 24 -19 61 8 56 -3 91 -29 85 -14 -4 -22 0 -25 14 -3
10 -12 19 -21 19 -8 0 -20 8 -27 17 -11 14 -9 20 11 36 34 26 30 35 -13 33
-56 -3 -73 9 -73 50 0 28 -3 35 -15 30 -21 -8 -45 3 -45 21 0 9 -6 13 -14 10
-9 -4 -12 2 -10 21 7 57 -17 79 -50 46 -15 -14 -16 -14 -16 1 0 12 -6 16 -19
12 -27 -7 -54 28 -42 52 12 22 5 32 -17 23 -15 -5 -15 -4 -3 11 20 25 6 33
-23 13 -33 -21 -34 -20 -29 8 4 21 2 24 -17 19 -20 -5 -21 -4 -11 15 16 30 14
33 -14 20 -22 -10 -30 -8 -53 9 -17 13 -26 29 -25 42 2 12 -2 21 -7 21 -6 0
-10 20 -10 45 0 33 4 45 14 45 24 0 29 20 11 40 -9 10 -14 24 -10 30 11 18
-14 30 -62 30 -41 0 -63 13 -44 25 6 3 2 19 -9 38 -10 18 -21 52 -25 77 -13
82 -15 90 -35 141 -11 27 -20 58 -20 69 0 12 -5 17 -14 14 -15 -6 -30 12 -31
36 0 10 -12 16 -34 18 -24 3 -47 17 -83 53 -27 27 -62 56 -78 64 -16 8 -34 24
-40 35 -6 11 -17 20 -24 20 -18 0 -36 44 -25 61 5 8 9 24 9 36 0 18 -6 22 -32
22 -59 0 -93 9 -111 32 -14 17 -20 20 -26 10 -6 -9 -11 -4 -15 16 -7 25 -9 26
-20 11 -14 -20 -26 -14 -26 13 0 10 -5 30 -11 46 -10 26 -11 27 -24 9 -15 -20
-37 -14 -29 8 7 18 -58 50 -84 42 -12 -4 -26 0 -36 9 -9 9 -24 15 -33 14 -10
-2 -28 2 -40 9 -17 9 -28 10 -43 2 -17 -9 -20 -7 -26 14 -8 34 -34 56 -34 30
0 -16 -2 -15 -16 5 -11 15 -20 19 -26 13 -7 -7 -33 13 -76 57 -67 67 -130 115
-187 140 -16 7 -37 17 -45 22 -25 15 -64 32 -76 33 -6 1 -18 9 -28 19 -10 9
-23 17 -30 17 -8 0 -19 7 -26 15 -7 8 -19 15 -28 15 -8 0 -20 7 -26 15 -15 21
-74 37 -82 23 -5 -7 -12 -4 -21 8 -12 17 -31 19 -216 21 -111 1 -213 5 -227 9
-14 4 -28 8 -32 9 -5 2 -15 3 -23 4 -9 0 -15 11 -15 25 0 14 -5 28 -12 32 -14
9 -270 12 -319 3z"/>
<path d="M1876 2478 c3 -4 9 -8 15 -8 5 0 9 4 9 8 0 5 -7 9 -15 9 -8 0 -12 -4
-9 -9z"/>
<path d="M2298 1305 c2 -14 10 -25 18 -25 11 0 11 5 2 25 -6 14 -14 25 -18 25
-4 0 -5 -11 -2 -25z"/>
<path d="M1960 1228 c0 -18 18 -34 28 -24 3 4 -2 14 -11 23 -16 16 -17 16 -17
1z"/>
<path d="M370 701 c0 -5 7 -14 15 -21 16 -14 18 -10 9 14 -6 17 -24 22 -24 7z"/>
</g>
</svg>
